<svg width="68" height="40" viewBox="0 0 68 40" fill="none" xmlns="http://www.w3.org/2000/svg"><g clip-path="url(#clip0_293_8871)"><path d="M62.0496 40H5.95036C2.66504 40 0 37.3977 0 34.1896V5.81037C0 2.60234 2.66504 0 5.95036 0H51.9593C53.5388 0 55.0499 0.61273 56.1678 1.70085L66.2582 11.5574C67.3725 12.6455 68 14.1245 68 15.6669V34.1931C68 37.4012 65.335 40.0035 62.0496 40.0035V40Z" fill="#181919" style="--clr-neutral-white: #181919;"></path><path d="M38.2738 24.9175H27.3359V28.0868H38.2738V24.9175Z" fill="#E5E8EC"></path><path d="M50.1389 9.38452V13.1278H44.8701C43.7161 13.1278 42.7749 13.4764 42.0681 14.1631C41.3648 14.8498 41.0078 15.7724 41.0078 16.8957V24.3013C41.0078 25.4282 41.3648 26.3473 42.0681 27.034C42.7713 27.7206 43.7125 28.0693 44.8701 28.0693L45.2849 28.0763V28.0833H46.3523C46.4785 28.0833 46.612 28.0763 46.749 28.0587C48.1014 27.9038 49.2914 27.1044 50.0055 25.974C50.056 25.8965 50.1425 25.7557 50.1425 25.7557V28.0869H53.4134V9.38452H50.1425H50.1389ZM50.1389 24.9H44.2787V16.1351H50.1389V24.9Z" fill="#E5E8EC"></path><path d="M22.0663 13.1629C20.714 13.3179 19.5239 14.1172 18.8099 15.2476C18.7594 15.3251 18.7125 15.399 18.6728 15.466V13.1348H11.875V15.9871H15.42V24.914H11.875V28.0833H22.7371V24.914H18.6728C18.6728 24.914 18.68 16.7337 18.6764 16.1209H25.6185V13.1348H22.463C22.3368 13.1348 22.2034 13.1418 22.0663 13.1594V13.1629Z" fill="#E5E8EC"></path></g><defs><clipPath id="clip0_293_8871"><rect width="68" height="40" fill="white"></rect></clipPath></defs></svg>